<svg id="Layer_1" data-name="Layer 1" xmlns="http://www.w3.org/2000/svg" xmlns:xlink="http://www.w3.org/1999/xlink" viewBox="0 0 800 447.99"><defs><style>.cls-1{fill:none;}.cls-2{fill:#00db91;}.cls-3{fill:#0d6b45;}.cls-4{fill:#101834;}.cls-5{fill:#ff80ab;}.cls-6{fill:#b4cce5;}.cls-7{fill:#196cff;}.cls-8{fill:#ffc738;}.cls-9{clip-path:url(#clip-path);}.cls-10{fill:#ff403d;}</style><clipPath id="clip-path"><rect class="cls-1" x="466.38" y="298.31" width="223.34" height="143.21"/></clipPath></defs><title>Mentimeter_Web_Homepage_2020</title><polygon class="cls-2" points="634.98 183.81 716.42 183.81 771.51 265.46 771.51 375.51 634.98 375.51 634.98 183.81"/><rect class="cls-3" x="638.73" y="269.69" width="98.4" height="7.43"/><rect class="cls-3" x="638.73" y="281.96" width="68.9" height="7.43"/><path class="cls-2" d="M222.28,309.94c0-106.25-86.13-192.38-192.37-192.38v96.19a96.19,96.19,0,0,1,96.19,96.19Z"/><path class="cls-2" d="M319.26,409.23a87.54,87.54,0,0,0,87.54-87.54H363a43.77,43.77,0,0,1-43.77,43.77Z"/><path d="M319.26,440v1.53c0-.53,0-1,0-1.53Z"/><path class="cls-4" d="M222.36,409.21a8.08,8.08,0,1,0,0,16.15,8.08,8.08,0,0,0,0-16.15Z"/><path class="cls-4" d="M287,134.6H157.72a16.17,16.17,0,0,0-16.15,16.17V376.92a16.15,16.15,0,0,0,16.15,16.15H287a16.14,16.14,0,0,0,16.15-16.15V150.77A16.16,16.16,0,0,0,287,134.6Z"/><path class="cls-4" d="M610,86.15H254.59v32.3H287a32.33,32.33,0,0,1,30.87,22.82,31.76,31.76,0,0,1,1.43,9.5V312.3h323V86.15Z"/><rect class="cls-2" x="368.3" y="141.28" width="161.55" height="17.05"/><rect class="cls-5" x="368.3" y="188.71" width="161.55" height="17.05"/><rect class="cls-6" x="483.69" y="177.05" width="11.13" height="40.38"/><rect class="cls-6" x="424.88" y="129.61" width="11.13" height="40.38"/><rect class="cls-6" x="395.35" y="226.35" width="11.13" height="40.38"/><rect class="cls-6" x="395.35" y="226.35" width="11.13" height="40.38"/><rect class="cls-2" x="189.15" y="198.52" width="68.43" height="17.05"/><rect class="cls-5" x="189.15" y="245.96" width="68.43" height="17.05"/><path class="cls-7" d="M642.28,53.84H254.56a32.32,32.32,0,0,0-32.28,32.31v32.3H157.72a32.29,32.29,0,0,0-32.29,32.32V409.23A32.32,32.32,0,0,0,147.87,440a31.69,31.69,0,0,0,9,1.53H287.8a31.74,31.74,0,0,0,9-1.53,32.31,32.31,0,0,0,22.46-30.77V344.62h323a32.31,32.31,0,0,0,32.29-32.32V86.15A32.32,32.32,0,0,0,642.28,53.84Zm-428,363.46a8.08,8.08,0,1,1,16.15,0,8.08,8.08,0,0,1-16.15,0ZM287,393.07H157.72a16.15,16.15,0,0,1-16.15-16.15V150.77a16.17,16.17,0,0,1,16.15-16.17H287a16.16,16.16,0,0,1,16.15,16.17V376.92A16.14,16.14,0,0,1,287,393.07ZM642.28,134.6V312.3h-323V150.77a32.32,32.32,0,0,0-4.34-16.17,32.33,32.33,0,0,0-28-16.15H254.59V86.15H642.28V134.6Z"/><rect class="cls-7" x="368.85" y="238.01" width="161.55" height="17.05"/><rect class="cls-7" x="189.39" y="295.25" width="68.43" height="17.05"/><circle class="cls-8" cx="611.37" cy="279.54" r="12.82"/><circle class="cls-8" cx="222.28" cy="355.26" r="12.82"/><g class="cls-9"><path class="cls-10" d="M593,488.6a82.88,82.88,0,1,1,0-165.76Z"/><path class="cls-5" d="M593,322.84a82.88,82.88,0,0,1,0,165.76Z"/></g><rect y="440" width="800" height="8"/><rect class="cls-6" x="395.35" y="226.35" width="11.13" height="40.38"/></svg>