<svg id="Layer_1" data-name="Layer 1" xmlns="http://www.w3.org/2000/svg" xmlns:xlink="http://www.w3.org/1999/xlink" viewBox="0 0 800 447.99"><defs><style>.cls-1{fill:none;}.cls-2{fill:#196cff;}.cls-3{fill:#101834;}.cls-4{clip-path:url(#clip-path);}.cls-5{fill:#0d6b45;}.cls-6{fill:#ff403d;}.cls-7{fill:#00da90;}.cls-8{fill:#ffc638;}.cls-9{fill:#ff80ab;}</style><clipPath id="clip-path"><rect class="cls-1" y="72.76" width="800" height="375.23"/></clipPath></defs><title>Mentimeter_Web_Homepage_2020</title><rect class="cls-2" x="342.86" y="277.58" width="195.7" height="164.78"/><rect class="cls-3" x="342.86" y="287.94" width="195.7" height="154.41"/><g class="cls-4"><path class="cls-5" d="M615,319.18h0l53.22,70.26,16.38,21.63,0,0,23.06,30.45.23.3V288A153.21,153.21,0,0,0,615,319.18Z"/><path class="cls-6" d="M705.27,103.31a46.18,46.18,0,1,0,2.63,15.38A46.17,46.17,0,0,0,705.27,103.31Z"/><polygon class="cls-6" points="446.84 348.56 446.84 377.59 446.84 383.89 446.84 441.87 477.6 441.87 477.6 380.33 477.6 348.56 461.67 348.56 446.84 348.56"/><path class="cls-7" d="M707.67,441.56l-23.06-30.45,0,0L668.2,389.45,615,319.19h0a154.36,154.36,0,0,0-30.19,30.33,153.58,153.58,0,0,0-27.71,61.57A155.3,155.3,0,0,0,554,441.86H707.9Z"/><polygon class="cls-7" points="416.07 380.3 416.07 441.87 446.82 441.87 446.82 383.8 446.82 380.3 446.51 380.3 416.07 380.3"/><rect class="cls-8" x="385.29" y="411.08" width="30.76" height="30.79"/><polygon class="cls-9" points="523.23 103.49 492.64 134.07 484.64 142.07 477.6 149.12 515.88 187.4 523.23 194.75 523.23 180.35 523.23 134.07 523.42 134.07 523.42 103.31 523.23 103.49"/><path class="cls-9" d="M141.37,286.24A30.78,30.78,0,1,0,153.89,311,30.68,30.68,0,0,0,141.37,286.24Z"/><path class="cls-9" d="M123.12,164.8a15.36,15.36,0,1,0-15.38-15.36A15.36,15.36,0,0,0,123.12,164.8Z"/><polygon class="cls-3" points="619.12 250.67 584.79 250.67 584.79 257.19 611.92 257.19 677.12 257.19 677.12 250.67 619.12 250.67"/><polygon class="cls-3" points="584.79 266.06 584.79 272.58 602.81 272.58 646.34 272.58 646.34 266.06 605.69 266.06 584.79 266.06"/><path class="cls-3" d="M326.33,134.08H215.45v92.33h92.33v7.7H215.45V349.52h92.33v7.7H215.45v7.7H277v7.69H215.45v7.69H153.89v49.31a12.24,12.24,0,0,0,12.23,12.23H326.33a12.24,12.24,0,0,0,12.23-12.23V146.31A12.23,12.23,0,0,0,326.33,134.08ZM277,218.72H246.23V211h61.55v7.69Z"/><polygon class="cls-3" points="153.89 226.41 141.37 226.41 61.56 226.41 61.56 234.11 141.37 234.11 153.89 234.11 153.89 226.41"/><rect class="cls-3" x="61.56" y="241.8" width="61.56" height="7.7"/><path class="cls-2" d="M661.73,164.85a46.2,46.2,0,0,1-43.54-61.54H523.42v91.63l-.19-.19V441.88h61.56v0H554a155.3,155.3,0,0,1,3.07-30.78,153.58,153.58,0,0,1,27.71-61.57A153.87,153.87,0,0,1,707.9,288V118.69A46.16,46.16,0,0,1,661.73,164.85ZM646.34,272.58H584.79v-6.52h61.55Zm-34.42-15.39H584.79v-6.52h92.33v6.52Z"/><polygon class="cls-2" points="523.23 103.49 523.42 103.31 523.23 103.31 523.23 103.49"/><path class="cls-2" d="M334.62,123.2H215.45V72.53H30.78V380.3H141.37v56a16.46,16.46,0,0,0,16.46,16.46H334.62a16.46,16.46,0,0,0,16.46-16.46V139.66A16.45,16.45,0,0,0,334.62,123.2Zm-193.25,163a30.77,30.77,0,1,1-18.25-6A30.76,30.76,0,0,1,141.37,286.24Zm12.52-59.83v7.7H61.56v-7.7h92.33ZM123.12,241.8v7.7H61.56v-7.7Zm0-107.72a15.36,15.36,0,1,1-15.38,15.36A15.36,15.36,0,0,1,123.12,134.08ZM338.56,265.42V429.61a12.24,12.24,0,0,1-12.23,12.23H276.57v0H246v0H166.12a12.24,12.24,0,0,1-12.23-12.23V380.3h61.56v-7.69H277v-7.69H215.45v-7.7h92.33v-7.7H215.45V234.11h92.33v-7.7H215.45V134.08H326.33a12.23,12.23,0,0,1,12.23,12.23V265.42Z"/><polygon class="cls-2" points="246.22 211.03 246.22 218.72 277 218.72 307.78 218.72 307.78 211.03 277 211.03 246.22 211.03"/><rect y="440.38" width="800.23" height="7.62"/></g></svg>