<svg id="Layer_1" data-name="Layer 1" xmlns="http://www.w3.org/2000/svg" viewBox="0 0 800 447.99"><defs><style>.cls-1{fill:#b4cce5;}.cls-2{fill:#0d6b45;}.cls-3{fill:#6e54bd;}.cls-4{fill:#ff80ab;}.cls-5{fill:#ffc738;}.cls-6{fill:#ff403d;}.cls-7{fill:#00db91;}.cls-8{fill:#101834;}.cls-9{fill:#fff;}.cls-10{fill:#196cff;}</style></defs><title>Mentimeter_Web_Homepage_2020</title><polygon points="799.99 439.99 799.99 447.99 0 447.99 0 439.99 80 439.99 520 439.99 719.99 439.99 799.99 439.99"/><polygon class="cls-1" points="680 319.98 680 359.99 640.01 359.99 640.01 319.99 640.01 319.98 680 319.98"/><polygon class="cls-2" points="680 279.98 680 280.01 679.97 280.01 680 279.98"/><rect class="cls-1" x="640.01" y="240" width="40" height="39.98"/><polygon class="cls-1" points="680 160 680 200 640.01 200 640.01 199.99 640.01 190 640.01 160 680 160"/><polygon class="cls-2" points="680 279.98 679.97 280.01 640.01 280.01 640.01 279.99 640.01 279.98 680 279.98"/><rect class="cls-1" x="639.99" y="319.97" width="0.01" height="0.01"/><rect class="cls-3" x="639.99" y="279.98" width="0.01" height="0.01"/><rect class="cls-1" x="639.99" y="240" width="0.01" height="39.98"/><rect class="cls-1" x="639.99" y="199.99" width="0.01" height="0.01"/><rect class="cls-1" x="639.99" y="190" width="0.01" height="9.98"/><rect class="cls-1" x="639.99" y="160" width="0.01" height="30"/><polygon class="cls-3" points="640.01 319.99 639.99 320 639.99 319.99 640.01 319.99"/><path class="cls-4" d="M640,80H560V0A80,80,0,0,1,640,80Z"/><rect class="cls-3" x="599.99" y="279.98" width="40" height="0.01"/><polygon class="cls-5" points="360 279.99 340 279.99 340 359.99 340 360 360 360 380.01 360 380.01 359.99 380.01 332.82 380.01 319.99 380.01 279.99 360 279.99"/><path class="cls-6" d="M480,80h80V0A80,80,0,0,0,480,80Z"/><polygon class="cls-6" points="260.01 199.97 260.01 199.99 260.01 240 260.01 250 260.01 260 260.01 269.99 260.01 359.99 260.01 360 280.01 360 300.01 360 300.01 359.99 300.01 319.98 300.01 250 300.01 240 300.01 199.97 279.99 199.97 260.01 199.97"/><polygon class="cls-7" points="442.34 240 439.99 240 420.01 240 420.01 263.71 420.01 319.99 420.01 330.32 420.01 332.82 420.01 359.99 420.01 360 460.01 360 460.01 359.99 460.01 332.82 460.01 330.32 460.01 319.99 460.01 240 442.34 240"/><path class="cls-7" d="M40.8,0V240H80V120a40,40,0,0,1,40-40H241.2V39.3L200,0ZM160,59H79.56V52.82H160Zm40-13.52H79.56V39.3H200Z"/><rect class="cls-2" x="79.56" y="39.3" width="120.44" height="6.16"/><path class="cls-8" d="M600,190V160h80V120H120V400H680V360H600V320h80V280H640v0H600V240h80V200H600ZM420,240h40V360H420V240Zm-40,80v40H340V280h40ZM300,200V360H260V200h40Z"/><rect class="cls-2" x="79.56" y="52.82" width="80.44" height="6.16"/><rect class="cls-9" x="240.01" y="357.99" width="241.59" height="4"/><path class="cls-10" d="M680,80H120a40,40,0,0,0-40,40V440H720V120A40,40,0,0,0,680,80Zm0,160V400H120V120H680V240Z"/><polygon class="cls-10" points="639.99 319.99 639.99 319.98 600 319.98 600 319.99 600 339.99 600 359.99 600 360 600.01 359.99 639.99 359.99 640.01 359.99 640.01 319.99 639.99 320 639.99 319.99"/><rect class="cls-10" x="599.99" y="240" width="40" height="39.98"/><polygon class="cls-10" points="639.99 199.99 639.99 190 639.99 160 600 160 600 190 600 199.99 600 200 639.99 200 639.99 199.99"/><rect class="cls-10" x="165.18" y="149" width="349.65" height="10.99"/></svg>